# xmcd
#
# Track frame offsets: 
#        150
#        17240
#        32428
#        48038
#        64660
#        82290
#        100543
#        115503
#        130103
#        147175
#        164138
#        181220
#        198533
#        214500
#
# Disc length: 3113 seconds
#
# Revision: 0
# Processed by: cddbd v1.4PL0 Copyright (c) Steve Scherf et al.
# Submitted via: ExactAudioCopy v0.90b4
#
DISCID=b90c270e
DTITLE=Uta Bresan - Zum Horizont und noch weiter
DYEAR=1999
DGENRE=
TTITLE0=Laß mich noch einmal träumen
TTITLE1=Geht denn diese Sehnsucht nie vorbei
TTITLE2=Die Antwort auf alles bist Du
TTITLE3=Wenn Liebe geht
TTITLE4=Mitten ins Herz
TTITLE5=Feuer im Vulkan
TTITLE6=Du bist der Wind
TTITLE7=Ich will nach Hause zu Dir
TTITLE8=Sehnsucht kannst Du nicht verbieten
TTITLE9=Den Himmel vor Augen
TTITLE10=Zum Horizont und noch weiter
TTITLE11=Wie liebst Du mich
TTITLE12=Gefühle brauchen Zeit
TTITLE13=Ich leb auch ohne Dich ganz gut
EXTD=
EXTT0=
EXTT1=
EXTT2=
EXTT3=
EXTT4=
EXTT5=
EXTT6=
EXTT7=
EXTT8=
EXTT9=
EXTT10=
EXTT11=
EXTT12=
EXTT13=
PLAYORDER=
